<?xml version="1.0" encoding="UTF-8"?>
<svg width="34px" height="18px" viewBox="0 0 34 18" version="1.1" xmlns="http://www.w3.org/2000/svg" xmlns:xlink="http://www.w3.org/1999/xlink">
    <title>删除线激活</title>
    <defs>
        <path d="M2,0 L34,0 L34,0 L34,18 L2,18 C0.8954305,18 1.3527075e-16,17.1045695 0,16 L0,2 C-1.3527075e-16,0.8954305 0.8954305,2.02906125e-16 2,0 Z" id="path-1"></path>
        <filter x="-1.5%" y="-2.8%" width="102.9%" height="105.6%" filterUnits="objectBoundingBox" id="filter-2">
            <feOffset dx="-1" dy="0" in="SourceAlpha" result="shadowOffsetInner1"></feOffset>
            <feComposite in="shadowOffsetInner1" in2="SourceAlpha" operator="arithmetic" k2="-1" k3="1" result="shadowInnerInner1"></feComposite>
            <feColorMatrix values="0 0 0 0 0   0 0 0 0 0   0 0 0 0 0  0 0 0 0.1973066 0" type="matrix" in="shadowInnerInner1"></feColorMatrix>
        </filter>
    </defs>
    <g id="删除线激活" stroke="none" stroke-width="1" fill="none" fill-rule="evenodd">
        <g id="删除线">
            <g id="选中">
                <use fill="#0062F0" fill-rule="evenodd" xlink:href="#path-1"></use>
                <use fill="black" fill-opacity="1" filter="url(#filter-2)" xlink:href="#path-1"></use>
            </g>
            <path d="M18,11 L18,15 L16,15 L16,11 L18,11 Z M22.5,9 C22.7761424,9 23,9.22385763 23,9.5 C23,9.77614237 22.7761424,10 22.5,10 L11.5,10 C11.2238576,10 11,9.77614237 11,9.5 C11,9.22385763 11.2238576,9 11.5,9 L22.5,9 Z M22,3 L22,5 L18,5 L18,8 L16,8 L16,5 L12,5 L12,3 L22,3 Z" id="形状结合" fill="#FFFFFF" opacity="0.88"></path>
        </g>
    </g>
</svg>