<?xml version="1.0" encoding="UTF-8"?>
<svg width="29px" height="24px" viewBox="0 0 29 24" version="1.1" xmlns="http://www.w3.org/2000/svg" xmlns:xlink="http://www.w3.org/1999/xlink">
    <!-- Generator: Sketch 61.2 (89653) - https://sketch.com -->
    <title>录屏激活icon</title>
    <desc>Created with Sketch.</desc>
    <g id="控件" stroke="none" stroke-width="1" fill="none" fill-rule="evenodd">
        <g id="截图or录屏/录屏" transform="translate(-53.000000, -5.000000)">
            <g id="录屏激活icon" transform="translate(53.000000, 5.000000)">
                <path d="M28.7359269,10.3554949 C28.8727961,10.5624678 28.9457724,10.8051234 28.9457724,11.0532584 L28.9457724,22.7441196 C28.9457724,23.4427599 28.3794126,24.0091196 27.6807724,24.0091196 C27.4326374,24.0091196 27.1899818,23.9361434 26.9830089,23.7992742 L22.0520833,20.5387805 L22.0520833,13.2587805 L26.9830089,9.99810386 C27.5657546,9.61273972 28.3505628,9.77274915 28.7359269,10.3554949 Z" id="形状结合" fill="#0062F0"></path>
                <path d="M16.5360417,0.75 C13.8804725,0.75 11.7277083,2.90276416 11.7277083,5.55833333 C11.7277083,8.21390251 13.8804725,10.3666667 16.5360417,10.3666667 C19.1916108,10.3666667 21.344375,8.21390251 21.344375,5.55833333 C21.344375,2.90276416 19.1916108,0.75 16.5360417,0.75 Z M5.14145833,2.834375 C3.17659028,2.834375 1.58375,4.42721528 1.58375,6.39208333 C1.58375,8.35695139 3.17659028,9.94979167 5.14145833,9.94979167 C7.10632639,9.94979167 8.69916667,8.35695139 8.69916667,6.39208333 C8.69916667,4.42721528 7.10632639,2.834375 5.14145833,2.834375 Z" id="形状结合" stroke="#0062F0" stroke-width="1.5"></path>
                <rect id="矩形" fill="#428CE8" x="1.20833333" y="9.86604167" width="20.84375" height="14.0347917" rx="2.645"></rect>
            </g>
        </g>
    </g>
</svg>