<?xml version="1.0" encoding="UTF-8"?>
<svg width="20px" height="20px" viewBox="0 0 20 20" version="1.1" xmlns="http://www.w3.org/2000/svg" xmlns:xlink="http://www.w3.org/1999/xlink">
    <!-- Generator: Sketch 61.2 (89653) - https://sketch.com -->
    <title>文字激活</title>
    <desc>Created with Sketch.</desc>
    <g id="文字激活" stroke="none" stroke-width="1" fill="none" fill-rule="evenodd">
        <path d="M19.4444445,0 C19.5917869,0 19.7330947,0.0585315771 19.8372815,0.162718452 C19.9414684,0.266905328 20,0.408213055 20,0.555555547 L20,1.66666667 C20,1.97349152 19.7512693,2.22222221 19.4444445,2.22222221 L11.1111111,2.22222221 L11.1111111,19.4444445 C11.1111111,19.5917869 11.0525795,19.7330947 10.9483927,19.8372816 C10.8442058,19.9414684 10.702898,20 10.5555555,20 L9.44444445,20 C9.29710196,20 9.15579422,19.9414684 9.05160734,19.8372816 C8.94742046,19.7330947 8.88888888,19.5917869 8.88888888,19.4444445 L8.88888888,2.22166667 L0.555555547,2.22222221 C0.408213055,2.22222221 0.266905328,2.16369064 0.162718452,2.05950376 C0.0585315771,1.95531689 0,1.81400916 0,1.66666667 L0,0.555555547 C0,0.408213055 0.0585315771,0.266905328 0.162718452,0.162718452 C0.266905328,0.0585315771 0.408213055,0 0.555555547,0 L19.4444445,0 L19.4444445,0 Z" id="文字" fill="#0062F0" fill-rule="nonzero"></path>
    </g>
</svg>