<?xml version="1.0" encoding="UTF-8"?>
<svg width="18px" height="18px" viewBox="0 0 18 18" version="1.1" xmlns="http://www.w3.org/2000/svg" xmlns:xlink="http://www.w3.org/1999/xlink">
    <!-- Generator: Sketch 61.2 (89653) - https://sketch.com -->
    <title>箭头</title>
    <desc>Created with Sketch.</desc>
    <g id="控件" stroke="none" stroke-width="1" fill="none" fill-rule="evenodd" fill-opacity="0.74">
        <g id="箭头" transform="translate(-6.000000, -6.000000)" fill="#000000" fill-rule="nonzero">
            <path d="M19.5752225,7.27388088 L26.4104178,13.9867434 C26.7606662,14.1682995 27,14.5341526 27,14.9558835 C27,15.3772128 26.7611218,15.7427706 26.4114182,15.9245044 L19.5752225,22.6379095 C19.2041595,23.0030529 18.6025915,23.0030529 18.2315284,22.6379095 C17.8604337,22.272735 17.8604337,21.6806822 18.2315284,21.3155077 L23.595,16.046 L4.09090909,16.0467926 C3.48843637,16.0467926 3,15.5583562 3,14.9558835 C3,14.3534108 3.48843637,13.8649744 4.09090909,13.8649744 L23.595,13.864 L18.2315284,8.59625149 C17.8604337,8.23110814 17.8604337,7.63902422 18.2315284,7.27388088 C18.6025914,6.90870637 19.2041595,6.90870637 19.5752225,7.27388088 Z" transform="translate(15.000000, 14.955884) rotate(-135.000000) translate(-15.000000, -14.955884) "></path>
        </g>
    </g>
</svg>