<?xml version="1.0" encoding="UTF-8"?>
<svg width="22px" height="22px" viewBox="0 0 22 22" version="1.1" xmlns="http://www.w3.org/2000/svg" xmlns:xlink="http://www.w3.org/1999/xlink">
    <!-- Generator: Sketch 61.2 (89653) - https://sketch.com -->
    <title>模糊</title>
    <desc>Created with Sketch.</desc>
    <g id="模糊" stroke="none" stroke-width="1" fill="none" fill-rule="evenodd" fill-opacity="0.8">
        <path d="M13.2599581,6.91823899 C12.3047486,6.91823899 11.5303983,7.69258927 11.5303983,8.64779874 C11.5303983,9.60300822 12.3047486,10.3773585 13.2599581,10.3773585 C14.2151675,10.3773585 14.9895178,9.60300822 14.9895178,8.64779874 C14.9895178,7.69258927 14.2151675,6.91823899 13.2599581,6.91823899 M13.2599581,11.5303983 C12.3047486,11.5303983 11.5303983,12.3047486 11.5303983,13.2599581 C11.5303983,14.2151675 12.3047486,14.9895178 13.2599581,14.9895178 C14.2151675,14.9895178 14.9895178,14.2151675 14.9895178,13.2599581 C14.9895178,12.3047486 14.2151675,11.5303983 13.2599581,11.5303983 M8.64779874,16.7190776 C8.34199356,16.7190776 8.04871337,16.8405582 7.83247645,17.0567951 C7.61623954,17.273032 7.4947589,17.5663122 7.4947589,17.8721174 C7.4947589,18.1779226 7.61623954,18.4712028 7.83247645,18.6874397 C8.04871337,18.9036766 8.34199356,19.0251572 8.64779874,19.0251572 C9.28460505,19.0251572 9.80083856,18.5089237 9.80083856,17.8721174 C9.80083856,17.2353111 9.28460505,16.7190776 8.64779874,16.7190776 M8.64779874,6.91823899 C7.69258927,6.91823899 6.91823899,7.69258927 6.91823899,8.64779874 C6.91823899,9.60300822 7.69258927,10.3773585 8.64779874,10.3773585 C9.60300822,10.3773585 10.3773585,9.60300822 10.3773585,8.64779874 C10.3773585,8.18909098 10.1951375,7.74917069 9.87078217,7.42481532 C9.5464268,7.10045994 9.10650651,6.91823899 8.64779874,6.91823899 M13.2599581,20.754717 C12.9415549,20.754717 12.6834381,21.0128337 12.6834381,21.3312369 C12.6834381,21.64964 12.9415549,21.9077568 13.2599581,21.9077568 C13.4128606,21.9077568 13.5595007,21.8470165 13.6676192,21.738898 C13.7757377,21.6307796 13.836478,21.4841395 13.836478,21.3312369 C13.836478,21.1783343 13.7757377,21.0316942 13.6676192,20.9235757 C13.5595007,20.8154573 13.4128606,20.754717 13.2599581,20.754717 M13.2599581,16.7190776 C12.6231517,16.7190776 12.1069182,17.2353111 12.1069182,17.8721174 C12.1069182,18.5089237 12.6231517,19.0251572 13.2599581,19.0251572 C13.8967644,19.0251572 14.4129979,18.5089237 14.4129979,17.8721174 C14.4129979,17.2353111 13.8967644,16.7190776 13.2599581,16.7190776 M21.3312369,12.6834381 C21.0128337,12.6834381 20.754717,12.9415549 20.754717,13.2599581 C20.754717,13.4128606 20.8154573,13.5595007 20.9235757,13.6676192 C21.0316942,13.7757377 21.1783343,13.836478 21.3312369,13.836478 C21.4841395,13.836478 21.6307796,13.7757377 21.738898,13.6676192 C21.8470165,13.5595007 21.9077568,13.4128606 21.9077568,13.2599581 C21.9077568,12.9415549 21.64964,12.6834381 21.3312369,12.6834381 M17.8721174,2.88259956 C17.2353111,2.88259956 16.7190776,3.39883308 16.7190776,4.0356394 C16.7190776,4.34144458 16.8405582,4.63472478 17.0567951,4.85096169 C17.273032,5.06719861 17.5663122,5.18867925 17.8721174,5.18867925 C18.1779226,5.18867925 18.4712028,5.06719861 18.6874397,4.85096169 C18.9036766,4.63472478 19.0251572,4.34144458 19.0251572,4.0356394 C19.0251572,3.39883308 18.5089237,2.88259956 17.8721174,2.88259956 M17.8721174,7.4947589 C17.5663122,7.4947589 17.273032,7.61623954 17.0567951,7.83247645 C16.8405582,8.04871337 16.7190776,8.34199356 16.7190776,8.64779874 C16.7190776,9.28460505 17.2353111,9.80083856 17.8721174,9.80083856 C18.5089237,9.80083856 19.0251572,9.28460505 19.0251572,8.64779874 C19.0251572,8.01099242 18.5089237,7.4947589 17.8721174,7.4947589 M17.8721174,16.7190776 C17.2353111,16.7190776 16.7190776,17.2353111 16.7190776,17.8721174 C16.7190776,18.5089237 17.2353111,19.0251572 17.8721174,19.0251572 C18.5089237,19.0251572 19.0251572,18.5089237 19.0251572,17.8721174 C19.0251572,17.2353111 18.5089237,16.7190776 17.8721174,16.7190776 M17.8721174,12.1069182 C17.2353111,12.1069182 16.7190776,12.6231517 16.7190776,13.2599581 C16.7190776,13.8967644 17.2353111,14.4129979 17.8721174,14.4129979 C18.5089237,14.4129979 19.0251572,13.8967644 19.0251572,13.2599581 C19.0251572,12.6231517 18.5089237,12.1069182 17.8721174,12.1069182 M8.64779874,11.5303983 C7.69258927,11.5303983 6.91823899,12.3047486 6.91823899,13.2599581 C6.91823899,14.2151675 7.69258927,14.9895178 8.64779874,14.9895178 C9.60300822,14.9895178 10.3773585,14.2151675 10.3773585,13.2599581 C10.3773585,12.3047486 9.60300822,11.5303983 8.64779874,11.5303983 M8.64779874,5.18867925 C9.28460505,5.18867925 9.80083856,4.67244571 9.80083856,4.0356394 C9.80083856,3.39883309 9.28460505,2.88259956 8.64779874,2.88259956 C8.01099242,2.88259956 7.4947589,3.39883308 7.4947589,4.0356394 C7.4947589,4.34144458 7.61623954,4.63472478 7.83247645,4.85096169 C8.04871337,5.06719861 8.34199356,5.18867925 8.64779874,5.18867925 M8.64779874,1.15303981 C8.96620189,1.15303981 9.22431865,0.89492306 9.22431865,0.576519907 C9.22431865,0.258116754 8.96620189,-9.88098492e-15 8.64779874,-9.88098492e-15 C8.49489615,-9.88098492e-15 8.34825605,0.0607403055 8.24013759,0.168858762 C8.13201913,0.276977218 8.07127881,0.423617316 8.07127881,0.576519907 C8.07127881,0.729422498 8.13201913,0.876062596 8.24013759,0.984181053 C8.34825605,1.09229951 8.49489615,1.15303981 8.64779874,1.15303981 M8.64779874,20.754717 C8.49489615,20.754717 8.34825605,20.8154573 8.24013759,20.9235757 C8.13201913,21.0316942 8.07127881,21.1783343 8.07127881,21.3312369 C8.07127881,21.4841395 8.13201913,21.6307796 8.24013759,21.738898 C8.34825605,21.8470165 8.49489615,21.9077568 8.64779874,21.9077568 C8.96620189,21.9077568 9.22431865,21.64964 9.22431865,21.3312369 C9.22431865,21.0128337 8.96620189,20.754717 8.64779874,20.754717 M0.576519907,12.6834381 C0.258116754,12.6834381 -9.1038288e-15,12.9415549 -9.1038288e-15,13.2599581 C-9.1038288e-15,13.4128606 0.0607403055,13.5595007 0.168858762,13.6676192 C0.276977218,13.7757377 0.423617316,13.836478 0.576519907,13.836478 C0.729422498,13.836478 0.876062596,13.7757377 0.984181053,13.6676192 C1.09229951,13.5595007 1.15303981,13.4128606 1.15303981,13.2599581 C1.15303981,12.9415549 0.89492306,12.6834381 0.576519907,12.6834381 M13.2599581,1.15303981 C13.4128606,1.15303981 13.5595007,1.09229951 13.6676192,0.984181053 C13.7757377,0.876062596 13.836478,0.729422498 13.836478,0.576519907 C13.836478,0.423617316 13.7757377,0.276977218 13.6676192,0.168858762 C13.5595007,0.0607403055 13.4128606,-1.0658141e-14 13.2599581,-1.0658141e-14 C12.9415549,-1.0658141e-14 12.6834381,0.258116754 12.6834381,0.576519907 C12.6834381,0.89492306 12.9415549,1.15303981 13.2599581,1.15303981 M13.2599581,5.18867925 C13.5657632,5.18867925 13.8590434,5.06719861 14.0752803,4.85096169 C14.2915173,4.63472478 14.4129979,4.34144458 14.4129979,4.0356394 C14.4129979,3.39883308 13.8967644,2.88259956 13.2599581,2.88259956 C12.6231517,2.88259956 12.1069182,3.39883309 12.1069182,4.0356394 C12.1069182,4.67244571 12.6231517,5.18867925 13.2599581,5.18867925 M21.3312369,9.22431865 C21.64964,9.22431865 21.9077568,8.96620189 21.9077568,8.64779874 C21.9077568,8.49489615 21.8470165,8.34825605 21.738898,8.24013759 C21.6307796,8.13201913 21.4841395,8.07127881 21.3312369,8.07127881 C21.1783343,8.07127881 21.0316942,8.13201913 20.9235757,8.24013759 C20.8154573,8.34825605 20.754717,8.49489615 20.754717,8.64779874 C20.754717,8.96620189 21.0128337,9.22431865 21.3312369,9.22431865 M4.0356394,2.88259956 C3.39883308,2.88259956 2.88259956,3.39883308 2.88259956,4.0356394 C2.88259956,4.34144458 3.0040802,4.63472478 3.22031711,4.85096169 C3.43655403,5.06719861 3.72983422,5.18867925 4.0356394,5.18867925 C4.34144458,5.18867925 4.63472478,5.06719861 4.85096169,4.85096169 C5.06719861,4.63472478 5.18867925,4.34144458 5.18867925,4.0356394 C5.18867925,3.72983422 5.06719861,3.43655403 4.85096169,3.22031711 C4.63472478,3.0040802 4.34144458,2.88259956 4.0356394,2.88259956 M0.576519907,8.07127881 C0.423617316,8.07127881 0.276977218,8.13201913 0.168858762,8.24013759 C0.0607403055,8.34825605 -1.0658141e-14,8.49489615 -1.0658141e-14,8.64779874 C-1.0658141e-14,8.96620189 0.258116754,9.22431865 0.576519907,9.22431865 C0.89492306,9.22431865 1.15303981,8.96620189 1.15303981,8.64779874 C1.15303981,8.49489615 1.09229951,8.34825605 0.984181053,8.24013759 C0.876062596,8.13201913 0.729422498,8.07127881 0.576519907,8.07127881 M4.0356394,7.4947589 C3.72983422,7.4947589 3.43655403,7.61623954 3.22031711,7.83247645 C3.0040802,8.04871337 2.88259956,8.34199356 2.88259956,8.64779874 C2.88259956,9.28460505 3.39883309,9.80083856 4.0356394,9.80083856 C4.67244571,9.80083856 5.18867925,9.28460505 5.18867925,8.64779874 C5.18867925,8.01099242 4.67244572,7.4947589 4.0356394,7.4947589 M4.0356394,16.7190776 C3.39883308,16.7190776 2.88259956,17.2353111 2.88259956,17.8721174 C2.88259956,18.5089237 3.39883308,19.0251572 4.0356394,19.0251572 C4.67244572,19.0251572 5.18867925,18.5089237 5.18867925,17.8721174 C5.18867925,17.5663122 5.06719861,17.273032 4.85096169,17.0567951 C4.63472478,16.8405582 4.34144458,16.7190776 4.0356394,16.7190776 M4.0356394,12.1069182 C3.39883309,12.1069182 2.88259956,12.6231517 2.88259956,13.2599581 C2.88259956,13.8967644 3.39883308,14.4129979 4.0356394,14.4129979 C4.34144458,14.4129979 4.63472478,14.2915173 4.85096169,14.0752803 C5.06719861,13.8590434 5.18867925,13.5657632 5.18867925,13.2599581 C5.18867925,12.6231517 4.67244571,12.1069182 4.0356394,12.1069182 Z" fill="#000000" fill-rule="nonzero"></path>
    </g>
</svg>