<?xml version="1.0" encoding="UTF-8"?>
<svg width="32px" height="18px" viewBox="0 0 32 18" version="1.1" xmlns="http://www.w3.org/2000/svg" xmlns:xlink="http://www.w3.org/1999/xlink">
    <!-- Generator: Sketch 61.2 (89653) - https://sketch.com -->
    <title>加粗</title>
    <desc>Created with Sketch.</desc>
    <defs>
        <rect id="path-1" x="0" y="0" width="32" height="18"></rect>
        <filter x="-1.6%" y="-2.8%" width="103.1%" height="105.6%" filterUnits="objectBoundingBox" id="filter-2">
            <feOffset dx="-1" dy="0" in="SourceAlpha" result="shadowOffsetInner1"></feOffset>
            <feComposite in="shadowOffsetInner1" in2="SourceAlpha" operator="arithmetic" k2="-1" k3="1" result="shadowInnerInner1"></feComposite>
            <feColorMatrix values="0 0 0 0 0   0 0 0 0 0   0 0 0 0 0  0 0 0 0.196104677 0" type="matrix" in="shadowInnerInner1"></feColorMatrix>
        </filter>
    </defs>
    <g id="加粗" stroke="none" stroke-width="1" fill="none" fill-rule="evenodd">
        <g>
            <g id="选中备份-2" opacity="0.601074219">
                <use fill="#FFFFFF" fill-rule="evenodd" xlink:href="#path-1"></use>
                <use fill="black" fill-opacity="1" filter="url(#filter-2)" xlink:href="#path-1"></use>
            </g>
            <path d="M12,4 L16.5050445,4 C17.4839676,4 18.2551194,4.23773849 18.8065128,4.71321546 C19.3159525,5.1607232 19.5776646,5.76206173 19.5776646,6.51822995 C19.5776646,7.07761463 19.4398162,7.5530916 19.1781041,7.94565978 C18.916392,8.30925981 18.5448007,8.57496754 18.0493457,8.77075217 C18.6956348,8.89661372 19.1781041,9.16232145 19.5087404,9.56787534 C19.8253921,9.95944462 19.9912097,10.5058436 19.9912097,11.1761063 C19.9912097,12.1849965 19.6465888,12.9261812 18.9723304,13.4016582 C18.3929677,13.7932275 17.5658775,13.9890121 16.5190291,13.9890121 L12,13.9890121 L12,4 Z M13.6122266,5.34352213 L13.6122266,8.19738288 L16.0785136,8.19738288 C16.7677555,8.19738288 17.2492258,8.07152133 17.5389072,7.84776745 C17.8146039,7.60903006 17.965438,7.23144541 17.965438,6.71401458 C17.965438,6.23853761 17.8146039,5.88892218 17.5389072,5.67915293 C17.2352412,5.45539906 16.7667566,5.34352213 16.105484,5.34352213 L13.6122266,5.34352213 Z M13.6122266,9.5399061 L13.6122266,12.6464889 L16.2852862,12.6464889 C16.8916192,12.6464889 17.3740885,12.5475976 17.7177105,12.351813 C18.1592249,12.1000899 18.3789831,11.7085206 18.3789831,11.1491359 C18.3789831,10.5757667 18.2141644,10.1702128 17.8965138,9.91749076 C17.5668764,9.66576766 17.0424533,9.5399061 16.3262411,9.5399061 L13.6122266,9.5399061 Z" id="形状" fill="#000000" fill-rule="nonzero" opacity="0.801199777"></path>
        </g>
    </g>
</svg>