<?xml version="1.0" encoding="UTF-8"?>
<svg width="32px" height="18px" viewBox="0 0 32 18" version="1.1" xmlns="http://www.w3.org/2000/svg" xmlns:xlink="http://www.w3.org/1999/xlink">
    <title>加粗</title>
    <defs>
        <rect id="path-1" x="0" y="0" width="32" height="18"></rect>
        <filter x="-1.6%" y="-2.8%" width="103.1%" height="105.6%" filterUnits="objectBoundingBox" id="filter-2">
            <feOffset dx="-1" dy="0" in="SourceAlpha" result="shadowOffsetInner1"></feOffset>
            <feComposite in="shadowOffsetInner1" in2="SourceAlpha" operator="arithmetic" k2="-1" k3="1" result="shadowInnerInner1"></feComposite>
            <feColorMatrix values="0 0 0 0 0   0 0 0 0 0   0 0 0 0 0  0 0 0 0.196104677 0" type="matrix" in="shadowInnerInner1"></feColorMatrix>
        </filter>
    </defs>
    <g id="加粗" stroke="none" stroke-width="1" fill="none" fill-rule="evenodd">
        <g>
            <g id="选中备份-2" opacity="0.601074219">
                <use fill="#FFFFFF" fill-rule="evenodd" xlink:href="#path-1"></use>
                <use fill="black" fill-opacity="1" filter="url(#filter-2)" xlink:href="#path-1"></use>
            </g>
            <path d="M11,3 L16.6375,3 C17.8625,3 18.8275,3.2856 19.5175,3.85679999 C20.155,4.3944 20.4825,5.1168 20.4825,6.0252 C20.4825,6.6972 20.31,7.2684 19.9825,7.74 C19.655,8.1768 19.19,8.496 18.57,8.73119999 C19.37875,8.88239999 19.9825,9.2016 20.39625,9.6888 C20.7925,10.1592 21,10.8156 21,11.6208 C21,12.8328 20.56875,13.7232 19.725,14.2944 C19,14.7648 17.965,15 16.655,15 L11,15 L11,3 Z M13.0175,4.614 L13.0175,8.0424 L16.10375,8.0424 C16.96625,8.0424 17.56875,7.8912 17.93125,7.62239999 C18.27625,7.33559999 18.465,6.882 18.465,6.26039999 C18.465,5.6892 18.27625,5.26919999 17.93125,5.0172 C17.55125,4.7484 16.965,4.614 16.1375,4.614 L13.0175,4.614 Z M13.0175,9.6552 L13.0175,13.3872 L16.3625,13.3872 C17.12125,13.3872 17.725,13.2684 18.155,13.0332 C18.7075,12.7308 18.9825,12.2604 18.9825,11.5884 C18.9825,10.8996 18.77625,10.4124 18.37875,10.1088 C17.96625,9.8064 17.31,9.6552 16.41375,9.6552 L13.0175,9.6552 Z" id="形状" fill="#000000" fill-rule="nonzero" opacity="0.801199777"></path>
        </g>
    </g>
</svg>