<?xml version="1.0" encoding="UTF-8"?>
<svg width="29px" height="25px" viewBox="0 0 29 25" version="1.1" xmlns="http://www.w3.org/2000/svg" xmlns:xlink="http://www.w3.org/1999/xlink">
    <!-- Generator: Sketch 61.2 (89653) - https://sketch.com -->
    <title>录屏icon</title>
    <desc>Created with Sketch.</desc>
    <g id="控件" stroke="none" stroke-width="1" fill="none" fill-rule="evenodd">
        <g id="截图or录屏/截图" transform="translate(-53.000000, -5.000000)">
            <g id="录屏icon" transform="translate(53.000000, 5.000000)">
                <path d="M28.7333578,10.4316204 C28.8718634,10.6394057 28.9457724,10.8835365 28.9457724,11.1332535 L28.9457724,22.9345036 C28.9457724,23.6331438 28.3794126,24.1995036 27.6807724,24.1995036 C27.4310554,24.1995036 27.1869246,24.1255947 26.9791393,23.987089 L22.0520833,20.7028987 L22.0520833,13.3648987 L26.9791393,10.0806681 C27.5604662,9.69316683 28.3458565,9.85029355 28.7333578,10.4316204 Z" id="形状结合" fill="#3C3C3C"></path>
                <path d="M16.5360417,0.75 C13.8818162,0.75 11.7277083,2.92134069 11.7277083,5.6028 C11.7277083,8.28425931 13.8818162,10.4556 16.5360417,10.4556 C19.1902672,10.4556 21.344375,8.28425931 21.344375,5.6028 C21.344375,2.92134069 19.1902672,0.75 16.5360417,0.75 Z M5.14145833,2.85105 C3.17793394,2.85105 1.58375,4.45798741 1.58375,6.44322 C1.58375,8.42845259 3.17793394,10.03539 5.14145833,10.03539 C7.10498273,10.03539 8.69916667,8.42845259 8.69916667,6.44322 C8.69916667,4.45798741 7.10498273,2.85105 5.14145833,2.85105 Z" id="形状结合" stroke="#4D4D4D" stroke-width="1.5"></path>
                <rect id="矩形" fill="#787878" x="1.20833333" y="9.94497" width="20.84375" height="14.14707" rx="2.645"></rect>
            </g>
        </g>
    </g>
</svg>