<?xml version="1.0" encoding="UTF-8"?>
<svg width="21px" height="21px" viewBox="0 0 21 21" version="1.1" xmlns="http://www.w3.org/2000/svg" xmlns:xlink="http://www.w3.org/1999/xlink">
    <!-- Generator: Sketch 61.2 (89653) - https://sketch.com -->
    <title>撤销</title>
    <desc>Created with Sketch.</desc>
    <g id="控件" stroke="none" stroke-width="1" fill="none" fill-rule="evenodd" opacity="0.882510231">
        <g id="操作栏" transform="translate(-500.000000, -14.000000)" fill="#000000" fill-rule="nonzero">
            <g id="撤销">
                <g transform="translate(500.000000, 14.000000)">
                    <path d="M10.4835937,20.953125 C8.52421875,20.953125 6.6140625,20.409375 4.959375,19.378125 C3.3515625,18.3773437 2.04140625,16.959375 1.17421875,15.2765625 C0.984375,14.9085937 1.1296875,14.45625 1.49765625,14.2664062 C1.865625,14.0765625 2.31796875,14.221875 2.5078125,14.5898437 C4.0546875,17.5898438 7.1109375,19.453125 10.4835937,19.453125 C15.4289062,19.453125 19.453125,15.4289062 19.453125,10.4835937 C19.453125,5.53828125 15.43125,1.51171875 10.4835937,1.51171875 C7.14609375,1.51171875 4.1015625,3.346875 2.54296875,6.3046875 C2.35078125,6.6703125 1.89609375,6.8109375 1.53046875,6.61875 C1.16484375,6.4265625 1.02421875,5.971875 1.21640625,5.60625 C2.090625,3.946875 3.40078125,2.54765625 4.99921875,1.56328125 C6.64453125,0.5484375 8.540625,0.0140625 10.4835937,0.0140625 C11.896875,0.0140625 13.2679687,0.290625 14.559375,0.83671875 C15.80625,1.3640625 16.9265625,2.11875 17.8875,3.0796875 C18.8484375,4.040625 19.603125,5.1609375 20.1304688,6.4078125 C20.6765625,7.69921875 20.953125,9.0703125 20.953125,10.4835937 C20.953125,11.896875 20.6765625,13.2679687 20.1304688,14.559375 C19.603125,15.80625 18.8484375,16.9265625 17.8875,17.8875 C16.9265625,18.8484375 15.80625,19.603125 14.559375,20.1304687 C13.2679687,20.6742188 11.896875,20.953125 10.4835937,20.953125 Z" id="路径"></path>
                    <path d="M0.00234375,6.721875 L0.00234375,2.22890625 C0.00234375,1.8140625 0.3375,1.47890625 0.75234375,1.47890625 C1.1671875,1.47890625 1.50234375,1.8140625 1.50234375,2.22890625 L1.50234375,6.721875 C1.50234375,7.13671875 1.1671875,7.471875 0.75234375,7.471875 C0.3375,7.471875 0.00234375,7.13671875 0.00234375,6.721875 Z" id="路径"></path>
                    <path d="M5.25,7.471875 L0.75234375,7.471875 C0.3375,7.471875 0.00234375,7.13671875 0.00234375,6.721875 C0.00234375,6.30703125 0.3375,5.971875 0.75234375,5.971875 L5.25,5.971875 C5.66484375,5.971875 6,6.30703125 6,6.721875 C6,7.13671875 5.66484375,7.471875 5.25,7.471875 Z" id="路径"></path>
                </g>
            </g>
        </g>
    </g>
</svg>