<?xml version="1.0" encoding="UTF-8"?>
<svg width="34px" height="18px" viewBox="0 0 34 18" version="1.1" xmlns="http://www.w3.org/2000/svg" xmlns:xlink="http://www.w3.org/1999/xlink">
    <!-- Generator: Sketch 61.2 (89653) - https://sketch.com -->
    <title>删除线</title>
    <desc>Created with Sketch.</desc>
    <defs>
        <path d="M2,0 L34,0 L34,0 L34,18 L2,18 C0.8954305,18 1.3527075e-16,17.1045695 0,16 L0,2 C-1.3527075e-16,0.8954305 0.8954305,2.02906125e-16 2,0 Z" id="path-1"></path>
        <filter x="-1.5%" y="-2.8%" width="102.9%" height="105.6%" filterUnits="objectBoundingBox" id="filter-2">
            <feOffset dx="-1" dy="0" in="SourceAlpha" result="shadowOffsetInner1"></feOffset>
            <feComposite in="shadowOffsetInner1" in2="SourceAlpha" operator="arithmetic" k2="-1" k3="1" result="shadowInnerInner1"></feComposite>
            <feColorMatrix values="0 0 0 0 0   0 0 0 0 0   0 0 0 0 0  0 0 0 0.1973066 0" type="matrix" in="shadowInnerInner1"></feColorMatrix>
        </filter>
    </defs>
    <g id="删除线" stroke="none" stroke-width="1" fill="none" fill-rule="evenodd">
        <g>
            <g id="选中" opacity="0.601469494">
                <use fill="#FFFFFF" fill-rule="evenodd" xlink:href="#path-1"></use>
                <use fill="black" fill-opacity="1" filter="url(#filter-2)" xlink:href="#path-1"></use>
            </g>
            <path d="M21.6144035,8.87692307 L12.3846998,8.87692307 C12.1722257,8.8769582 12,9.04914609 12,9.26153846 C12,9.47393084 12.1722257,9.64611873 12.3846998,9.64615385 L21.615173,9.64615385 C21.7526509,9.64617657 21.8796954,9.57287426 21.9484409,9.45386452 C22.0171864,9.33485477 22.0171864,9.18822216 21.9484409,9.06921241 C21.8796954,8.95020266 21.7526509,8.87690035 21.615173,8.87692307 L21.6144035,8.87692307 Z M16.2631145,8.23076923 L17.6097863,8.23076923 L17.6097863,5.34615385 L21.0726567,5.34615385 L21.0726567,4 L12.8002442,4 L12.8002442,5.34615385 L16.2631145,5.34615385 L16.2631145,8.23076923 Z M16.2631145,10.5384615 L17.6097863,10.5384615 L17.6097863,14 L16.2631145,14 L16.2631145,10.5384615 Z" fill="#000000" fill-rule="nonzero" opacity="0.804129464"></path>
        </g>
    </g>
</svg>